# xmcd
#
# Track frame offsets: 
#        150
#        30500
#        60648
#        90145
#        123360
#        151923
#        216485
#        247833
#
# Disc length: 3653 seconds
#
# Revision: 1
# Processed by: cddbd v1.5.1PL2 Copyright (c) Steve Scherf et al.
# Submitted via: ExactAudioCopy v0.95b3
#
DISCID=5a0e4308
DTITLE=Dzem - Akustycznie
DYEAR=1900
DGENRE=blues
TTITLE0=Jesiony
TTITLE1=Autsajder
TTITLE2=Zloty Paw
TTITLE3=Mala Aleja Roz
TTITLE4=Czerwony Jak Cegla
TTITLE5=Detox
TTITLE6=List Do M.
TTITLE7=Wehikul Czasu
EXTD=
EXTT0=
EXTT1=
EXTT2=
EXTT3=
EXTT4=
EXTT5=
EXTT6=
EXTT7=
PLAYORDER=
